<svg xmlns="http://www.w3.org/2000/svg" width="193" height="37" viewBox="0 0 193 37">
  <g fill="none" fill-rule="evenodd">
    <path fill="#F5EBE5" d="M0.230843137,35.7272727 L0.281300654,35.2181818 C0.33175817,34.2509091 1.84548366,34.5563636 2.95554902,33.8945455 C4.1160719,33.1818182 4.62064706,31.4 5.52888235,21.0654545 C6.23528758,12.8181818 5.983,11.4436364 4.97384967,10.68 C3.96469935,9.91636364 2.45097386,10.12 2.50143137,9.35636364 L2.55188889,8.74545455 L14.4598627,8.74545455 C19.7074444,8.74545455 23.6935882,10.7818182 23.6935882,15.4654545 C23.6935882,21.1672727 18.7992092,24.3236364 13.2488824,24.3236364 C12.7947647,24.3236364 12.4415621,24.12 12.4920196,23.7127273 L12.5424771,23.1018182 C16.5790784,23 19.6569869,20.9127273 19.6569869,16.3818182 C19.6569869,13.0218182 17.6386863,10.5272727 14.2075752,10.5272727 L13.803915,10.5272727 C12.6938497,10.5272727 11.5837843,10.6290909 10.8773791,11.1381818 C9.91868627,11.8 9.36365359,14.1927273 8.7581634,21.0654545 C7.8499281,31.4 8.1526732,33.1818182 9.21228105,33.8945455 C10.2214314,34.5563636 12.5424771,34.0981818 12.4415621,35.2181818 L12.3911046,35.7272727 L0.230843137,35.7272727 Z M21.7976471,35.7272727 L21.8708105,35.1367273 C21.9073922,34.7307273 22.3829542,34.7676364 23.0048431,34.2878182 C24.0657124,33.4389091 25.5655621,30.8183636 27.8702092,26.2416364 L31.5649608,18.8598182 C32.8087386,16.4238182 34.2720065,15.8701818 35.6621111,15.7225455 L38.2959935,23.5472727 C40.6372222,30.4492727 41.6980915,33.4389091 42.2833987,34.1770909 C42.8687059,34.9152727 43.3808497,34.6938182 43.344268,35.1367273 L43.3076863,35.7272727 L34.1988431,35.7272727 L34.2720065,35.1367273 C34.3085882,34.62 35.5157843,34.8045455 36.2474183,34.1032727 C36.5034902,33.8818182 36.6132353,33.4758182 36.6132353,32.9221818 C36.6132353,32.0363636 36.284,30.6338182 35.6621111,28.5669091 L28.9676601,28.5669091 C27.8336275,30.966 27.1751569,32.4423636 27.1751569,33.3281818 C27.1751569,33.8449091 27.3946471,34.1770909 27.8702092,34.3985455 C28.3823529,34.62 29.4066405,34.62 29.3700588,35.1367273 L29.2968954,35.7272727 L21.7976471,35.7272727 Z M29.8090392,26.8321818 L35.1133856,26.8321818 L33.0282288,20.2254545 L32.9550654,20.2254545 L29.8090392,26.8321818 Z M45.801549,35.7272727 L45.8747124,35.2105455 C45.9112941,34.5092727 47.0087451,34.7307273 47.8135425,34.2509091 C48.6549216,33.7341818 48.9841569,32.59 49.6426275,25.0974545 C50.1547712,19.1181818 49.935281,18.2692727 49.2036471,17.7156364 C48.4720131,17.162 47.3745621,17.3096364 47.4111438,16.756 L47.4843072,16.1654545 L57.4345294,16.1654545 L57.361366,16.756 C57.3247843,17.3096364 55.9346797,17.1989091 55.1298824,17.7156364 C54.325085,18.2323636 53.959268,19.1181818 53.4471242,25.0974545 C52.7886536,32.6638182 52.9715621,33.3650909 53.7763595,33.6972727 C54.2519216,33.9187273 55.2396275,33.9925455 56.4102418,33.9925455 L57.3979477,33.9925455 C59.3733595,33.9925455 59.922085,33.7341818 60.3976471,33.1067273 C61.0195359,32.2578182 61.3121895,29.4158182 62.5193856,29.4158182 L63.0315294,29.4158182 L61.7511699,35.7272727 L45.801549,35.7272727 Z M65.7083007,35.7272727 L65.7814641,35.2105455 C65.8180458,34.5092727 66.9154967,34.7307273 67.7202941,34.2509091 C68.5616732,33.7341818 68.8909085,32.59 69.5493791,25.0974545 C70.0615229,19.1181818 69.8420327,18.2692727 69.1103987,17.7156364 C68.3787647,17.162 67.2813137,17.3096364 67.3178954,16.756 L67.3910588,16.1654545 L77.341281,16.1654545 L77.2681176,16.756 C77.2315359,17.3096364 75.8414314,17.1989091 75.036634,17.7156364 C74.2318366,18.2323636 73.8660196,19.1181818 73.3538758,25.0974545 C72.6954052,32.6638182 72.8783137,33.3650909 73.6831111,33.6972727 C74.1586732,33.9187273 75.1463791,33.9925455 76.3169935,33.9925455 L77.3046993,33.9925455 C79.2801111,33.9925455 79.8288366,33.7341818 80.3043987,33.1067273 C80.9262876,32.2578182 81.2189412,29.4158182 82.4261373,29.4158182 L82.938281,29.4158182 L81.6579216,35.7272727 L65.7083007,35.7272727 Z M89.7096797,36.4145455 C88.5743856,36.4145455 88.0067386,35.67 88.0067386,34.4672727 C88.0067386,31.1454545 92.2073268,23.1845455 92.2073268,20.55 C92.2073268,20.1490909 92.0937974,19.5190909 91.3558562,19.5190909 C90.3340915,19.5190909 88.687915,21.4090909 87.7796797,23.2990909 C87.2120327,23.1272727 86.7011503,22.7836364 87.155268,21.9245455 C88.4040915,19.5763636 91.0720327,16.14 94.477915,16.14 C95.5564444,16.14 96.1808562,16.5409091 96.1808562,17.6863636 C96.1808562,19.8054545 92.1505621,29.5418182 92.1505621,31.3172727 C92.1505621,31.89 92.3776209,32.2336364 92.8885033,32.2336364 C94.0805621,32.2336364 95.2726209,30.5154545 96.1808562,28.6827273 C96.7485033,28.8545455 97.3161503,29.2554545 96.9187974,30.1145455 C95.4996797,33.0354545 92.8885033,36.4145455 89.7096797,36.4145455 Z M113.47517,33.8436364 L114.635693,33.8436364 C121.548373,33.8436364 125.029941,28.4472727 125.029941,21.1163636 C125.029941,15.4654545 122.103405,10.5272727 115.543928,10.5272727 L114.433863,10.5272727 C113.323797,10.5272727 112.163275,10.5781818 111.456869,11.1890909 C110.599092,11.9527273 109.993601,14.1927273 109.388111,21.0654545 C108.631248,30.0254545 108.782621,32.7236364 109.842229,33.3345455 C110.649549,33.7927273 111.860529,33.8436364 113.47517,33.8436364 Z M100.860791,35.7272727 L100.911248,35.2181818 C100.961706,34.2509091 102.475431,34.5563636 103.585497,33.8945455 C104.74602,33.1818182 105.250595,31.4 106.15883,21.0654545 C106.865235,12.8181818 106.612948,11.4436364 105.603797,10.68 C104.594647,9.91636364 103.080922,10.12 103.131379,9.35636364 L103.181837,8.74545455 L115.998046,8.74545455 C124.525366,8.74545455 129.217915,13.2763636 129.217915,20.2 C129.217915,28.7527273 123.516216,35.7272727 114.48432,35.7272727 L100.860791,35.7272727 Z M142.676196,36.1701818 C136.31098,36.1701818 132.835719,31.6672727 132.835719,26.5738182 C132.835719,20.7421818 137.188941,15.7225455 144.066301,15.7225455 C149.919373,15.7225455 153.870196,19.3396364 153.870196,25.0236364 C153.870196,30.8552727 149.626719,36.1701818 142.676196,36.1701818 Z M142.859105,34.3985455 C147.212327,34.3985455 149.334065,30.3754545 149.334065,25.2450909 C149.334065,20.816 147.687889,17.4941818 143.810229,17.4941818 C139.74966,17.4941818 137.37185,21.222 137.37185,26.3523636 C137.37185,30.7814545 138.944863,34.3985455 142.859105,34.3985455 Z M166.31302,36.1701818 C160.350203,36.1701818 157.240758,31.8149091 157.240758,26.6845455 C157.240758,20.7052727 161.703725,15.7225455 168.837157,15.7225455 C170.995477,15.7225455 172.641654,15.944 174.836556,16.4238182 L173.995176,21.8494545 L173.483033,21.8494545 C172.422163,21.8494545 173.007471,20.3361818 172.422163,19.0812727 C171.800275,17.7525455 170.154098,17.4941818 168.800575,17.4941818 C164.227863,17.4941818 161.703725,21.3327273 161.703725,26.3523636 C161.703725,30.4861818 163.496229,33.9187273 167.959196,33.9187273 C170.007771,33.9187273 172.092928,33.2543636 173.84885,32.2209091 C174.031758,32.4792727 174.50732,33.2912727 173.812268,33.8449091 C172.019765,35.2843636 169.276137,36.1701818 166.31302,36.1701818 Z M184.27968,36.1701818 C181.792124,36.1701818 179.450895,35.838 177.512065,35.2474545 L178.280281,29.9325455 L178.865588,29.9325455 C179.853294,29.9325455 179.487477,31.5934545 180.036203,32.7745455 C180.658092,34.0663636 182.596922,34.3985455 184.096771,34.3985455 C186.547745,34.3985455 188.413412,33.5127273 188.413412,31.4089091 C188.413412,26.9798182 179.194824,26.3892727 179.194824,21.0743636 C179.194824,17.9001818 182.523758,15.7225455 186.730654,15.7225455 C188.742647,15.7225455 190.425405,15.9809091 192.547144,16.4976364 L191.852092,21.1481818 L191.339948,21.1481818 C190.352242,21.1481818 190.864386,20.0778182 190.31566,18.9336364 C189.766935,17.7156364 188.230503,17.4941818 186.986725,17.4941818 C184.974732,17.4941818 183.548046,18.2692727 183.548046,19.9301818 C183.548046,24.3223636 192.693471,23.6210909 192.693471,29.8218182 C192.693471,34.1032727 188.486575,36.1701818 184.27968,36.1701818 Z"/>
    <path fill="#6B9EB7" d="M91.4095838,14.3331508 C90.2218915,14.3331508 87.7722761,11.2841898 87.7722761,8.99895502 C87.7722761,6.71372026 90.2218915,0.957085406 91.4095838,0.957085406 C92.5972761,0.957085406 95.0468915,6.71372026 95.0468915,8.99895502 C95.0468915,11.2841898 92.5972761,14.3331508 91.4095838,14.3331508 Z" transform="rotate(-30 91.41 7.645)"/>
    <path fill="#B9B582" d="M97.1451768,14.3331508 C95.9574844,14.3331508 93.5078691,11.2841898 93.5078691,8.99895502 C93.5078691,6.71372026 95.9574844,0.957085406 97.1451768,0.957085406 C98.3328691,0.957085406 100.782484,6.71372026 100.782484,8.99895502 C100.782484,11.2841898 98.3328691,14.3331508 97.1451768,14.3331508 Z" transform="scale(-1 1) rotate(-30 0 370.196)"/>
    <path fill="#954B57" d="M94.4373075,13.5760654 C93.3149214,13.5760654 91,10.5271044 91,8.24186962 C91,5.95663485 93.3149214,0.2 94.4373075,0.2 C95.5596936,0.2 97.874615,5.95663485 97.874615,8.24186962 C97.874615,10.5271044 95.5596936,13.5760654 94.4373075,13.5760654 Z"/>
  </g>
</svg>
