<svg xmlns="http://www.w3.org/2000/svg" width="193" height="33" viewBox="0 0 193 33">
  <g fill="#221C18" fill-rule="evenodd" transform="translate(0 -1)">
    <path d="M0.230843137,32.3660131 L0.281300654,31.8614379 C0.33175817,30.9027451 1.84548366,31.2054902 2.95554902,30.5495425 C4.1160719,29.8431373 4.62064706,28.0771242 5.52888235,17.8342484 C6.23528758,9.66013072 5.983,8.29777778 4.97384967,7.54091503 C3.96469935,6.78405229 2.45097386,6.98588235 2.50143137,6.22901961 L2.55188889,5.62352941 L14.4598627,5.62352941 C19.7074444,5.62352941 23.6935882,7.64183007 23.6935882,12.2839216 C23.6935882,17.9351634 18.7992092,21.0635294 13.2488824,21.0635294 C12.7947647,21.0635294 12.4415621,20.8616993 12.4920196,20.4580392 L12.5424771,19.852549 C16.5790784,19.751634 19.6569869,17.6828758 19.6569869,13.1921569 C19.6569869,9.86196078 17.6386863,7.38954248 14.2075752,7.38954248 L13.803915,7.38954248 C12.6938497,7.38954248 11.5837843,7.49045752 10.8773791,7.99503268 C9.91868627,8.65098039 9.36365359,11.0224837 8.7581634,17.8342484 C7.8499281,28.0771242 8.1526732,29.8431373 9.21228105,30.5495425 C10.2214314,31.2054902 12.5424771,30.7513725 12.4415621,31.8614379 L12.3911046,32.3660131 L0.230843137,32.3660131 Z M21.7976471,32.3660131 L21.8708105,31.7807059 C21.9073922,31.3783072 22.3829542,31.4148889 23.0048431,30.9393268 C24.0657124,30.0979477 25.5655621,27.5006471 27.8702092,22.9645163 L31.5649608,15.6481765 C32.8087386,13.2337843 34.2720065,12.6850588 35.6621111,12.538732 L38.2959935,20.2940523 C40.6372222,27.1348301 41.6980915,30.0979477 42.2833987,30.8295817 C42.8687059,31.5612157 43.3808497,31.3417255 43.344268,31.7807059 L43.3076863,32.3660131 L34.1988431,32.3660131 L34.2720065,31.7807059 C34.3085882,31.2685621 35.5157843,31.4514706 36.2474183,30.7564183 C36.5034902,30.5369281 36.6132353,30.1345294 36.6132353,29.5858039 C36.6132353,28.7078431 36.284,27.3177386 35.6621111,25.2691634 L28.9676601,25.2691634 C27.8336275,27.6469739 27.1751569,29.1102418 27.1751569,29.9882026 C27.1751569,30.5003464 27.3946471,30.8295817 27.8702092,31.0490719 C28.3823529,31.2685621 29.4066405,31.2685621 29.3700588,31.7807059 L29.2968954,32.3660131 L21.7976471,32.3660131 Z M29.8090392,23.5498235 L35.1133856,23.5498235 L33.0282288,17.0016993 L32.9550654,17.0016993 L29.8090392,23.5498235 Z M45.801549,32.3660131 L45.8747124,31.8538693 C45.9112941,31.158817 47.0087451,31.3783072 47.8135425,30.9027451 C48.6549216,30.3906013 48.9841569,29.2565686 49.6426275,21.8304837 C50.1547712,15.9042484 49.935281,15.0628693 49.2036471,14.5141438 C48.4720131,13.9654183 47.3745621,14.1117451 47.4111438,13.5630196 L47.4843072,12.9777124 L57.4345294,12.9777124 L57.361366,13.5630196 C57.3247843,14.1117451 55.9346797,14.002 55.1298824,14.5141438 C54.325085,15.0262876 53.959268,15.9042484 53.4471242,21.8304837 C52.7886536,29.329732 52.9715621,30.0247843 53.7763595,30.3540196 C54.2519216,30.5735098 55.2396275,30.6466732 56.4102418,30.6466732 L57.3979477,30.6466732 C59.3733595,30.6466732 59.922085,30.3906013 60.3976471,29.7687124 C61.0195359,28.9273333 61.3121895,26.1105425 62.5193856,26.1105425 L63.0315294,26.1105425 L61.7511699,32.3660131 L45.801549,32.3660131 Z M65.7083007,32.3660131 L65.7814641,31.8538693 C65.8180458,31.158817 66.9154967,31.3783072 67.7202941,30.9027451 C68.5616732,30.3906013 68.8909085,29.2565686 69.5493791,21.8304837 C70.0615229,15.9042484 69.8420327,15.0628693 69.1103987,14.5141438 C68.3787647,13.9654183 67.2813137,14.1117451 67.3178954,13.5630196 L67.3910588,12.9777124 L77.341281,12.9777124 L77.2681176,13.5630196 C77.2315359,14.1117451 75.8414314,14.002 75.036634,14.5141438 C74.2318366,15.0262876 73.8660196,15.9042484 73.3538758,21.8304837 C72.6954052,29.329732 72.8783137,30.0247843 73.6831111,30.3540196 C74.1586732,30.5735098 75.1463791,30.6466732 76.3169935,30.6466732 L77.3046993,30.6466732 C79.2801111,30.6466732 79.8288366,30.3906013 80.3043987,29.7687124 C80.9262876,28.9273333 81.2189412,26.1105425 82.4261373,26.1105425 L82.938281,26.1105425 L81.6579216,32.3660131 L65.7083007,32.3660131 Z M89.7096797,33.0471895 C88.5743856,33.0471895 88.0067386,32.3092484 88.0067386,31.1171895 C88.0067386,27.8248366 92.2073268,19.9345425 92.2073268,17.323366 C92.2073268,16.9260131 92.0937974,16.3016013 91.3558562,16.3016013 C90.3340915,16.3016013 88.687915,18.1748366 87.7796797,20.0480719 C87.2120327,19.8777778 86.7011503,19.5371895 87.155268,18.685719 C88.4040915,16.358366 91.0720327,12.9524837 94.477915,12.9524837 C95.5564444,12.9524837 96.1808562,13.3498366 96.1808562,14.4851307 C96.1808562,16.5854248 92.1505621,26.2354248 92.1505621,27.9951307 C92.1505621,28.5627778 92.3776209,28.903366 92.8885033,28.903366 C94.0805621,28.903366 95.2726209,27.2004248 96.1808562,25.3839542 C96.7485033,25.5542484 97.3161503,25.9516013 96.9187974,26.8030719 C95.4996797,29.6980719 92.8885033,33.0471895 89.7096797,33.0471895 Z M113.47517,30.499085 L114.635693,30.499085 C121.548373,30.499085 125.029941,25.1505882 125.029941,17.8847059 C125.029941,12.2839216 122.103405,7.38954248 115.543928,7.38954248 L114.433863,7.38954248 C113.323797,7.38954248 112.163275,7.44 111.456869,8.0454902 C110.599092,8.80235294 109.993601,11.0224837 109.388111,17.8342484 C108.631248,26.7147712 108.782621,29.3890196 109.842229,29.9945098 C110.649549,30.4486275 111.860529,30.499085 113.47517,30.499085 Z M100.860791,32.3660131 L100.911248,31.8614379 C100.961706,30.9027451 102.475431,31.2054902 103.585497,30.5495425 C104.74602,29.8431373 105.250595,28.0771242 106.15883,17.8342484 C106.865235,9.66013072 106.612948,8.29777778 105.603797,7.54091503 C104.594647,6.78405229 103.080922,6.98588235 103.131379,6.22901961 L103.181837,5.62352941 L115.998046,5.62352941 C124.525366,5.62352941 129.217915,10.1142484 129.217915,16.9764706 C129.217915,25.4533333 123.516216,32.3660131 114.48432,32.3660131 L100.860791,32.3660131 Z M142.676196,32.8049935 C136.31098,32.8049935 132.835719,28.3420261 132.835719,23.2937516 C132.835719,17.5138431 137.188941,12.538732 144.066301,12.538732 C149.919373,12.538732 153.870196,16.1237386 153.870196,21.7573203 C153.870196,27.5372288 149.626719,32.8049935 142.676196,32.8049935 Z M142.859105,31.0490719 C147.212327,31.0490719 149.334065,27.0616667 149.334065,21.9768105 C149.334065,17.5870065 147.687889,14.2946536 143.810229,14.2946536 C139.74966,14.2946536 137.37185,17.9894052 137.37185,23.0742614 C137.37185,27.4640654 138.944863,31.0490719 142.859105,31.0490719 Z M166.31302,32.8049935 C160.350203,32.8049935 157.240758,28.4883529 157.240758,23.4034967 C157.240758,17.4772614 161.703725,12.538732 168.837157,12.538732 C170.995477,12.538732 172.641654,12.7582222 174.836556,13.2337843 L173.995176,18.6112941 L173.483033,18.6112941 C172.422163,18.6112941 173.007471,17.1114444 172.422163,15.8676667 C171.800275,14.5507255 170.154098,14.2946536 168.800575,14.2946536 C164.227863,14.2946536 161.703725,18.0991503 161.703725,23.0742614 C161.703725,27.1714118 163.496229,30.5735098 167.959196,30.5735098 C170.007771,30.5735098 172.092928,29.9150392 173.84885,28.8907516 C174.031758,29.1468235 174.50732,29.9516209 173.812268,30.5003464 C172.019765,31.9270327 169.276137,32.8049935 166.31302,32.8049935 Z M184.27968,32.8049935 C181.792124,32.8049935 179.450895,32.4757582 177.512065,31.890451 L178.280281,26.6226863 L178.865588,26.6226863 C179.853294,26.6226863 179.487477,28.2688627 180.036203,29.4394771 C180.658092,30.7198366 182.596922,31.0490719 184.096771,31.0490719 C186.547745,31.0490719 188.413412,30.1711111 188.413412,28.0859542 C188.413412,23.6961503 179.194824,23.1108431 179.194824,17.8430784 C179.194824,14.6970523 182.523758,12.538732 186.730654,12.538732 C188.742647,12.538732 190.425405,12.7948039 192.547144,13.3069477 L191.852092,17.9162418 L191.339948,17.9162418 C190.352242,17.9162418 190.864386,16.8553725 190.31566,15.7213399 C189.766935,14.5141438 188.230503,14.2946536 186.986725,14.2946536 C184.974732,14.2946536 183.548046,15.0628693 183.548046,16.7090458 C183.548046,21.062268 192.693471,20.3672157 192.693471,26.5129412 C192.693471,30.7564183 188.486575,32.8049935 184.27968,32.8049935 Z"/>
    <path d="M94.0281688,7.6118112 C95.1751812,7.6118112 96.1424923,6.21590915 96.2833537,4.56886703 C96.4242151,2.9218249 95.0788167,0.633591312 93.8624656,1.17514572 C92.6506647,1.71467423 91.9788106,2.93955336 91.9168863,4.37466184 C91.8395411,6.16715462 92.8811564,7.6118112 94.0281688,7.6118112 Z" transform="rotate(24 94.103 4.353)"/>
  </g>
</svg>
