<svg xmlns="http://www.w3.org/2000/svg" width="100" height="100" viewBox="0 0 100 100">
  <g fill="none" fill-rule="evenodd">
    <circle cx="50" cy="50" r="50" fill="#000" opacity=".4"/>
    <path fill="#FFF" d="M40.4902612,32.8382719 L69.4505324,49.1284245 C69.9318903,49.3991883 70.1026105,50.0089034 69.8318467,50.4902612 C69.7420579,50.6498857 69.6101569,50.7817868 69.4505324,50.8715755 L40.4902612,67.1617281 C40.0089034,67.4324919 39.3991883,67.2617716 39.1284245,66.7804138 C39.0442285,66.6307321 39,66.4618894 39,66.2901525 L39,33.7098475 C39,33.1575627 39.4477153,32.7098475 40,32.7098475 C40.1717369,32.7098475 40.3405796,32.754076 40.4902612,32.8382719 Z"/>
    <path fill="#FFF" fill-rule="nonzero" d="M50,86 C69.882251,86 86,69.882251 86,50 C86,30.117749 69.882251,14 50,14 C30.117749,14 14,30.117749 14,50 C14,69.882251 30.117749,86 50,86 Z M50,89 C28.4608948,89 11,71.5391052 11,50 C11,28.4608948 28.4608948,11 50,11 C71.5391052,11 89,28.4608948 89,50 C89,71.5391052 71.5391052,89 50,89 Z"/>
  </g>
</svg>
